<?xml version="1.0" encoding="UTF-8"?>
<!-- Generator: Adobe Illustrator 25.4.1, SVG Export Plug-In . SVG Version: 6.00 Build 0)  -->
<svg version="1.1" id="Capa_1" xmlns="http://www.w3.org/2000/svg" xmlns:xlink="http://www.w3.org/1999/xlink" x="0px" y="0px" viewBox="0 0 155 45" style="enable-background:new 0 0 155 45;" xml:space="preserve">
<style type="text/css">
	.st0{fill-rule:evenodd;clip-rule:evenodd;fill:#FFFFFF;}
	.st1{fill:#FFFFFF;}
</style>
<g>
	<g>
		<g>
			<path class="st0" d="M26.57,15.84c0.19,0.06,0.39,0.09,0.57-0.07l9.26-12.93l10.36,15.49c2.11,4.29,0.92,8.65-0.49,11     c-2.43,4.01-7.42,6.8-13.64,4.91L14.3,34.34l0.68-1.07l17.05,0.58c0.02-0.59,0.05-1.03,0.24-1.78l-16.89,0.65l1.24-1.69     l15.79,0.62c0.11-0.6,0.36-1.23,0.59-1.83l-16,0.68l1.24-1.7l15.04,0.57c0.25-0.58,0.65-1.18,1.02-1.71l-15.65,0.57l1.24-1.71     l14.83,0.62c0.5-0.63,1.01-1.18,1.61-1.72l-16.05,0.58l0.47-0.65c-0.29-0.37-0.56-0.74-0.82-1.13l17.19,0.68     c1.35-1,4.01-0.86,5.12,0.18l0.52,0.32c0.46,0.58,0.72,0.97,1.11,1.59c0.06,0.08,0.16,0.21,0.3,0c0.27-0.34,0.68-1.01,0.83-1.68     l-2.25,0.09l-0.52-0.31l2.84-0.02c0.11-0.6,0.13-1.28,0.1-1.85l-25.52,0.49c-0.42-1.13-0.58-2.32-0.36-3.57     c0.72,0.92,3.18,2.11,3.63,2.06l22.16,0.56c-0.06-0.59-0.15-1.2-0.42-1.78l-22.48,0.38c-0.45-0.51-0.69-1.07-0.87-1.7l13.38,0.5     l-1.96-1.07c1.48-0.03,2.7-0.07,4.18-0.11c0.62,0.07,0.8,0.04,1.11,0.49c0.09,0.14,0.11,0.32,0.16,0.48     c0.04,0.16,0.07,0.3,0.24,0.37c0.03,0.01,0.08,0.02,0.1,0.02c1.48,0.01,4.29,0.05,5.93,0.1c-0.73-1.11-1.45-1.51-2.61-1.99     L21.25,19.3c-0.14-0.74-0.15-1.41-0.03-2.21c0.01-0.07,0.07-0.08,0.11-0.03c0.66,0.73,1.74,1.53,2.94,1.76     c0.14,0.03,0.14,0.02,0.1-0.05c-0.1-0.15-0.72-1.13-0.5-1.13l15.63,0.42c0.3,0.01-0.75-1.69-2.19-1.83     c-0.01,0-12.59,0.79-13.58,0.83c-0.02,0-0.07-0.01-0.07-0.04c-0.32-1.17-0.39-1.82-0.2-3.08c0-0.01,0.01-0.01,0.02-0.01     C24.45,14.94,25.59,15.58,26.57,15.84"/>
			<path id="XMLID_00000029045987061543830900000004954309081756705673_" class="st0" d="M54.16,16.71H65.8     c0.59,0,1.01,0.51,1.05,1.01v7c0,0.59-0.51,1.1-1.05,1.1h-7.63v-3h5.06c0.21,0,0.42-0.17,0.42-0.38c0-0.8,0-1.6,0-2.4     c0-0.21-0.17-0.42-0.42-0.42h-5.95v9.78h-3.12L54.16,16.71L54.16,16.71z M69.84,16.71h10.92v2.91H72.5     c-0.29,0-0.55,0.29-0.51,0.55l-0.04,1.52h7.84v2.82h-7.84c0,0.55,0,1.05,0,1.6c0,0.29,0.25,0.51,0.55,0.55h9.87     c0.25-0.04,0.47-0.25,0.51-0.55v-9.4h3.33c0.55,0,1.01,0.59,1.27,1.01c1.52,2.36,2.53,4.93,4.05,7.3c0.25,0.42,0.25,0.42,0.47,0     l4.05-7.3c0.29-0.55,0.72-1.01,1.31-1.01h3.12V29.4h-3.12v-7.51l-3.92,7.09c-0.09,0.17-0.21,0.42-0.47,0.42h-2.32     c-0.25,0-0.42-0.25-0.55-0.42l-3.88-7.09v6.54c0,0.55-0.47,0.97-0.97,0.97h-15.4c-0.55,0-1.01-0.42-1.01-0.97V17.72     C68.83,17.17,69.3,16.75,69.84,16.71L69.84,16.71z M102.87,17.89c0-0.63,0.59-1.18,1.22-1.18h10.71v2.95h-8.18     c-0.42-0.04-0.76,0.34-0.76,0.72v1.35l7.72-0.04v2.82h-7.68v1.6c0,0.29,0.34,0.55,0.72,0.55h12.23c0.13,0,0.21,0,0.34-0.13     c0.84-1.01,1.73-2.02,2.57-3.04c0.17-0.21,0.17-0.34,0-0.55l-2.66-3.04c0.09,0.13-0.29-0.29-0.47-0.29h-1.98v-2.91     c1.18,0,1.98,0,3.2,0c0.8,0.04,1.22,0.8,1.64,1.22l2.24,2.7c0.21,0.25,0.21,0.25,0.42,0l2.32-2.74c0.29-0.34,0.97-1.18,1.6-1.18     h3.08v2.91c-0.63,0-1.27,0-1.9,0c-0.13,0-0.25,0.04-0.34,0.17l-2.66,3.16c-0.25,0.29-0.25,0.29-0.04,0.55l2.53,3.04     c0.17,0.13,0.29,0.13,0.51,0.13h1.86v2.74h-3.8c-0.21,0-0.59-0.09-0.72-0.21l-2.82-3.42l-2.78,3.42     c-0.13,0.13-0.47,0.21-0.76,0.21h-16.15c-0.67,0-1.22-0.47-1.22-1.14V17.89z"/>
		</g>
	</g>
	<g>
		<path class="st1" d="M137.38,23.19c0.53,0,1.04,0.14,1.54,0.41c0.5,0.27,0.89,0.66,1.17,1.16s0.42,1.03,0.42,1.58    c0,0.54-0.14,1.06-0.42,1.56c-0.28,0.5-0.66,0.89-1.16,1.16c-0.5,0.28-1.02,0.42-1.56,0.42c-0.54,0-1.07-0.14-1.56-0.42    s-0.89-0.67-1.16-1.16c-0.28-0.5-0.42-1.02-0.42-1.56c0-0.55,0.14-1.07,0.42-1.58c0.28-0.5,0.67-0.89,1.18-1.16    C136.33,23.33,136.85,23.19,137.38,23.19z M137.38,23.71c-0.44,0-0.87,0.11-1.29,0.34c-0.42,0.23-0.75,0.55-0.98,0.97    c-0.24,0.42-0.35,0.86-0.35,1.31c0,0.45,0.11,0.89,0.35,1.3c0.23,0.42,0.56,0.74,0.97,0.97c0.42,0.23,0.85,0.35,1.3,0.35    c0.45,0,0.89-0.11,1.3-0.35s0.74-0.55,0.97-0.97c0.23-0.42,0.34-0.85,0.34-1.3c0-0.46-0.12-0.89-0.35-1.31    c-0.24-0.42-0.56-0.74-0.98-0.97C138.24,23.83,137.81,23.71,137.38,23.71z M136,28.07v-3.38h1.16c0.4,0,0.68,0.03,0.86,0.09    c0.18,0.06,0.32,0.17,0.42,0.33c0.11,0.16,0.16,0.32,0.16,0.49c0,0.25-0.09,0.46-0.27,0.65s-0.41,0.29-0.7,0.31    c0.12,0.05,0.22,0.11,0.29,0.18c0.14,0.13,0.3,0.36,0.5,0.67l0.41,0.66h-0.67l-0.3-0.53c-0.24-0.42-0.42-0.68-0.57-0.79    c-0.1-0.08-0.24-0.12-0.44-0.12h-0.32v1.44L136,28.07L136,28.07z M136.54,26.17h0.66c0.32,0,0.53-0.05,0.65-0.14    c0.11-0.09,0.17-0.22,0.17-0.37c0-0.1-0.03-0.19-0.08-0.27c-0.06-0.08-0.13-0.14-0.23-0.18c-0.1-0.04-0.28-0.06-0.55-0.06h-0.62    L136.54,26.17L136.54,26.17z"/>
	</g>
</g>
</svg>